  <svg viewBox="0 0 400 400">
                        <g style="fill= #fff">
                            <path style="display:inline;" d="M314,36.983v326.035H76V36.983H314 M315,35.983H75v328.035h240V35.983L315,35.983z" />
                        </g>
                        <g>
                            <g>
                                <circle cx="254.381" cy="109.741" r="19.261" class="gender-female" />
                            </g>
                            <path d="M302.922,208.738l-18.493-65.097c-0.462-1.387-1.271-2.496-2.177-3.37
		c-1.926-1.857-4.561-2.794-7.236-2.794h-38.355c-10.786-0.77-13.098,6.164-13.098,6.164l-18.723,64.247
		c-0.83,2.849-0.372,5.977,1.442,8.325c1.819,2.354,4.023,2.739,6.014,2.354c3.112-0.602,5.537-3.063,6.375-6.12l14.187-51.783
		c0.272-0.991,0.822-1.903,1.641-2.523c1.481-1.121,2.332-0.416,2.8,0.462c0.425,0.796,0.483,1.738,0.258,2.611l-19.001,73.725
		h13.868l-0.723,64.339c-0.043,3.846,1.839,7.534,5.131,9.522c2.971,1.794,5.656,1.374,7.823,0.198
		c3.468-1.883,5.489-5.654,5.489-9.6v-63.688h7.704v63.272c0,3.98,1.979,7.772,5.392,9.818c3.284,1.969,6.021,1.272,8.075-0.165
		c2.744-1.92,4.253-5.166,4.253-8.516v-65.951h13.868l-18.82-71.516c-0.37-1.405-0.414-2.893-0.01-4.289
		c0.259-0.894,1.363-1.334,1.753-1.321c2.439,0.082,3.209,3.164,3.209,3.164l14.111,51.903c0.806,2.811,2.862,5.162,5.628,6.109
		c3.147,1.076,5.178-0.308,6.452-2.099C303.272,213.99,303.636,211.249,302.922,208.738z" class="gender-female" />
                        </g>
                        <g>
                            <path d="M174,203.203c0-18.555-15.232-33.596-34.021-33.596s-34.021,15.042-34.021,33.596
		c0,17.421,13.428,31.743,30.619,33.428v6.972h-5.094c-1.216,0-2.369,0.639-2.935,1.715c-0.026,0.049-0.051,0.099-0.077,0.15
		c-1.322,2.664,0.651,5.79,3.624,5.79h5.332v7.278c0,1.6,0.959,3.074,2.456,3.638c0.032,0.012,0.064,0.024,0.096,0.035
		c2.496,0.891,5.103-1.083,5.103-3.733v-7.217h6.491c1.673,0,3.259-0.977,3.822-2.552c0.437-1.224,0.371-2.736-1.323-4.181
		c-0.721-0.615-1.66-0.922-2.608-0.922h-6.382v-7.182C161.45,233.99,174,220.045,174,203.203z M139.978,230.846
		c-14.562,0-26.367-11.995-26.367-26.792c0-14.797,11.805-26.792,26.367-26.792s26.367,11.995,26.367,26.792
		C166.345,218.851,154.54,230.846,139.978,230.846z" class="gender-female" />
                        </g>
                    </svg>