<svg id="Calque_1" data-name="Calque 1" xmlns="http://www.w3.org/2000/svg" viewBox="0 0 400 400"><defs><style>.cls-1{fill:#ed1e79;}.cls-2{fill:none;}</style></defs><title>female-hover</title><path d="M314,37V363H76V37H314m1-1H75V364H315V36Z"/><circle class="cls-1" cx="254.38" cy="109.74" r="19.26"/><path class="cls-1" d="M302.92,208.74l-18.49-65.1a8.25,8.25,0,0,0-2.18-3.37,10.36,10.36,0,0,0-7.23-2.79H236.66c-10.78-.77-13.1,6.16-13.1,6.16l-18.72,64.25a9.35,9.35,0,0,0,1.44,8.32,5.78,5.78,0,0,0,6,2.36,8.43,8.43,0,0,0,6.37-6.12l14.19-51.79a4.67,4.67,0,0,1,1.64-2.52c1.48-1.12,2.33-.42,2.8.46a3.68,3.68,0,0,1,.26,2.61l-19,73.73h13.86l-.72,64.34a11,11,0,0,0,5.13,9.52,7.45,7.45,0,0,0,7.82.2,10.86,10.86,0,0,0,5.49-9.6V235.71h7.71V299a11.41,11.41,0,0,0,5.39,9.82,6.92,6.92,0,0,0,8.08-.17,10.34,10.34,0,0,0,4.25-8.51v-66h13.87l-18.82-71.52a8,8,0,0,1,0-4.29,2.12,2.12,0,0,1,1.75-1.32c2.44.08,3.21,3.17,3.21,3.17l14.11,51.9a9,9,0,0,0,5.63,6.11,5.23,5.23,0,0,0,6.45-2.1A8.65,8.65,0,0,0,302.92,208.74Z"/><path class="cls-1" d="M174,203.2a34,34,0,1,0-37.42,33.43v7h-5.1a3.29,3.29,0,0,0-2.93,1.72l-.08.15a4,4,0,0,0,3.62,5.79h5.34v7.28a3.86,3.86,0,0,0,2.45,3.63l.1,0a3.89,3.89,0,0,0,5.1-3.73v-7.22h6.49a4,4,0,0,0,3.82-2.55,3.56,3.56,0,0,0-1.32-4.18,4,4,0,0,0-2.61-.93h-6.38v-7.18A33.74,33.74,0,0,0,174,203.2Zm-34,27.65a26.8,26.8,0,1,1,26.36-26.8A26.59,26.59,0,0,1,140,230.85Z"/><ellipse class="cls-2" cx="139.98" cy="204.05" rx="26.37" ry="26.79"/></svg>