<svg id="Calque_1" data-name="Calque 1" xmlns="http://www.w3.org/2000/svg" viewBox="0 0 400 400"><defs><style>.cls-1{fill:none;}</style></defs><title>male</title><path d="M323.5,27V379H66.5V27h257m1-1H65.5V380h259V26Z"/><circle cx="139.91" cy="113.42" r="19.56"/><path d="M169.25,143.54s-50.07-.78-59.46,0-11.74,13.3-11.74,13.3v63.57c0,3.32-.45,6.42,2.61,7.7a12.23,12.23,0,0,0,7.66-.17c2.42-1.26,2.25-3.89,2.21-6.62l.07-3.94c.23-14.56.42-29.25.59-43.73,0-2.71-.75-7.79,3-8.52,2.69-.52,2.65,3.85,2.64,5.47l-.12,11.6c-.07,7.62-.09,15.23-.13,22.85l-.18,33.42-.18,33q-.06,12.63-.13,25.27l-.06,10.17a11.43,11.43,0,0,0,5.8,10.13,7.41,7.41,0,0,0,8.55-.53,11.29,11.29,0,0,0,4.4-9.13V231.17h7.83l.74,77.22a10.16,10.16,0,0,0,4.85,8.71,7,7,0,0,0,8.16-.33,10.45,10.45,0,0,0,4.24-8.56V225.28c0-16.17,0-32.32-.16-48.5,0-2.19-1.1-12.06,2.59-12.12a2,2,0,0,1,1.25.56,5.49,5.49,0,0,1,1.78,4.26l.08,50.58c-.05,3.69-.11,7.1,3.42,8.15.2.06,4.29.17,4.48.14,4.95-.7,5.34-2.38,5.34-6.45V155.28C179.42,145.89,169.25,143.54,169.25,143.54Z"/><path d="M295.22,165.13,280.32,167a1.82,1.82,0,0,0-.69,3.38l5.5,2.62L266,191.28a36.9,36.9,0,1,0,6.2,6.33l19.28-19.27,2.54,5.49a2,2,0,0,0,3.5-1.12l.62-14.93A2.57,2.57,0,0,0,295.22,165.13Zm-22.7,55.42a29.11,29.11,0,1,1-29.11-29.11A29.11,29.11,0,0,1,272.52,220.55Z"/><circle class="cls-1" cx="243.41" cy="220.55" r="29.11"/></svg>